<svg xmlns="http://www.w3.org/2000/svg" viewBox="0 0 286.62 54.29"><defs><style>.cls-1{fill:#f60;}.cls-2{fill:#0c3085;}</style></defs><title>nrg logo</title><g id="Слой_2" data-name="Слой 2"><g id="Слой_1-2" data-name="Слой 1"><rect class="cls-1" x="68.99" y="3.7" width="11.38" height="11.38" transform="translate(28.51 -50.06) rotate(45)"/><polygon class="cls-2" points="128.34 1.55 139.03 1.55 164.04 34.13 164.04 1.55 176.28 1.55 176.28 54.04 165.7 54.04 140.62 21.43 140.58 21.43 140.58 54.04 128.34 54.04 128.34 1.55"/><path class="cls-2" d="M217.43,34.55a16.19,16.19,0,0,0,7.28-6,16.44,16.44,0,0,0,2.68-9.32A17.49,17.49,0,0,0,225,10a16.56,16.56,0,0,0-6.74-6.25,21,21,0,0,0-9.8-2.24h-23V12.44h22.54a7.31,7.31,0,0,1,3.63.93,7.08,7.08,0,0,1,2.62,2.49,6.33,6.33,0,0,1,1,3.38,7,7,0,0,1-.94,3.61,6.71,6.71,0,0,1-2.61,2.51,7.52,7.52,0,0,1-3.67.91H185.39V54h12.23V36.48h7.8L214.61,54h14Z"/><path class="cls-2" d="M277.6,27H262.38v9h0v1.68h8.47a15.5,15.5,0,1,1,3.39-15.94L285,17.88a27,27,0,1,0-9.12,30.6V54h10.71V27h-9Z"/><polygon class="cls-2" points="112.02 1.45 74.84 38.3 45.5 9.32 45.49 9.32 45.49 9.31 0 54.27 16.2 54.27 45.49 25.27 74.79 54.27 74.79 54.27 74.81 54.29 82.94 46.3 82.91 46.27 112.02 17.51 112.02 1.45"/></g></g></svg>