<svg width="226" height="81" viewBox="0 0 226 81" fill="none" xmlns="http://www.w3.org/2000/svg">
<path d="M-1.3901e-06 2.77433e-06H69.4877L71.1275 2.15909H-1.3901e-06V2.77433e-06ZM78.4156 2.77433e-06H128.704C129.637 0.909094 130.64 1.61364 131.71 2.15909H78.4156V2.77433e-06ZM147.539 2.77433e-06H187.419V2.15909H145.102C145.717 1.88637 146.309 1.54545 146.901 1.18182L147.562 0.772729V2.77433e-06H147.539Z" transform="translate(38.5813 62.4318)" fill="#D6B46B"/>
<path d="M7.33367 1.06818H2.84692C2.09533 1.06818 1.4804 1.63637 1.4804 2.34091V4.09091H-6.95049e-07V6.93581e-07H18.0153V4.09091H16.5349V2.34091C16.5349 1.63637 15.92 1.06818 15.1684 1.06818H10.6817V21.3636H12.4126V22.4318H5.55719V21.3636H7.31089V1.06818H7.33367Z" transform="translate(39.7886 38.5909)" fill="#D6B46B"/>
<path d="M5.12446 8.68182V16.1818H6.87816V17.25H0.0227726V16.1818H1.7537V2.34091C1.7537 1.63636 1.13877 1.06818 0.38718 1.06818H2.7802e-06V1.38716e-06H6.85538V1.06818H6.46821C5.71662 1.06818 5.10168 1.63636 5.10168 2.34091V7.68182H11.7521V2.34091C11.7521 1.63636 11.1372 1.06818 10.4083 1.06818H10.0212V1.38716e-06H16.8765V1.06818H16.4894C15.7378 1.06818 15.1228 1.63636 15.1228 2.34091V16.1818H16.8538V17.25H9.99839V16.1818H11.7293V8.68182H5.12446Z" transform="translate(79.8733 43.7727)" fill="#D6B46B"/>
<path d="M12.2987 17.25H2.7802e-06V16.1818H1.73093V2.34091C1.73093 1.63636 1.11599 1.06818 0.38718 1.06818H2.7802e-06V1.38716e-06H11.8204V2.70455H10.6589V2.34091C10.6589 1.63636 10.0439 1.06818 9.31512 1.06818H5.10168V7.68182H9.0646V6.04545H10.2034V10.3182H9.0646V8.68182H5.10168V16.1818H10.6589V14.5455H12.2759L12.2987 17.25Z" transform="translate(113.695 43.7727)" fill="#D6B46B"/>
<path d="M12.1165 17.2727L3.32521 4.40909V16.1818H5.0789V17.25H-2.7802e-06V16.1818H1.7537V2.34091C1.7537 1.63636 1.13877 1.06818 0.387181 1.06818H-2.7802e-06V0H4.03124L12.9136 13.0227V2.34091C12.9136 1.63636 12.2987 1.06818 11.5471 1.06818H11.1599V0H16.2161V1.06818H15.8289C15.0773 1.06818 14.4851 1.63636 14.4851 2.34091V17.25H12.1165V17.2727Z" transform="translate(126.699 43.75)" fill="#D6B46B"/>
<path d="M5.85328 1.06818H2.50529C1.75371 1.06818 1.13877 1.63636 1.13877 2.34091V2.70455H2.7802e-06V1.38716e-06H15.0545V2.70455H13.9157V2.34091C13.9157 1.63636 13.3008 1.06818 12.5492 1.06818H9.20124V16.1818H10.9322V17.25H4.07679V16.1818H5.80772V1.06818H5.85328Z" transform="translate(143.644 43.7727)" fill="#D6B46B"/>
<path d="M51.2218 17.2273L46.8717 9.72727C46.4162 8.95455 45.6191 8.5 44.6853 8.5H44.412V7.43182H51.6545V8.5H51.0624C50.8119 8.5 50.6069 8.61364 50.493 8.81818C50.3563 9.02273 50.3563 9.25 50.4702 9.45454L54.1143 15.7273L57.7583 9.45454C57.8722 9.25 57.8722 9.02273 57.7583 8.81818C57.6445 8.61364 57.4167 8.5 57.1889 8.5H56.5968V7.43182H61.4252V8.5H61.1519C60.2181 8.5 59.4209 8.95455 58.9654 9.72727L54.5926 17.2273V23.6136H56.3463V24.6818H49.4909V23.6136H51.2218V17.2273ZM20.384 26.1136C18.1064 27.5455 15.4645 28.2727 12.4353 28.2727C8.58631 28.2727 5.55718 27 3.3252 24.4773C1.09321 21.9318 0 18.4773 0 14.0909C0 9.63636 1.07044 6.18182 3.21132 3.70455C5.35221 1.25 8.33578 6.93581e-07 12.1848 6.93581e-07C14.1435 6.93581e-07 16.7399 0.454545 19.9284 1.34091V6.52273H18.7897V6.25C18.7897 1.31818 9.74785 -1.11363 5.94437 4.72727C4.41842 7.04546 3.68961 10.1591 3.68961 14.0455C3.68961 17.9545 4.57785 20.9773 6.35433 23.1818C8.13081 25.3636 10.5905 26.4545 13.7791 26.4545C15.8517 26.4545 18.0381 25.75 20.384 24.3409V26.1136ZM26.1917 23.6364H27.9454V24.7045H21.09V23.6364H22.8209V9.79545C22.8209 9.09091 22.206 8.52273 21.4544 8.52273H21.0672V7.45455H27.9226V8.52273H27.5354C26.7838 8.52273 26.1689 9.09091 26.1689 9.79545V23.6364H26.1917ZM34.5047 8.52273H31.1567C30.4051 8.52273 29.7902 9.09091 29.7902 9.79545V10.1591H28.6514V7.45455H43.7059V10.1591H42.5672V9.79545C42.5672 9.09091 41.9522 8.52273 41.2006 8.52273H37.8527V23.6364H39.5836V24.7045H32.7282V23.6364H34.4591V8.52273H34.5047Z" transform="translate(164.324 36.3182)" fill="#D6B46B"/>
<path d="M1.3901e-06 17.4773V13.8636H0.455509L0.592162 14.1591C1.04767 15.1136 2.07256 15.8409 2.43696 16.1136C3.18855 16.6818 4.05401 16.9773 5.05613 16.9773C6.01269 16.9773 6.78706 16.6818 7.37922 16.1364C7.97138 15.5682 8.26746 14.8182 8.26746 13.9091C8.26746 13.1818 8.08526 12.5909 7.74363 12.1591C7.402 11.7273 6.74151 11.2273 5.73939 10.7045L4.5323 10.0682C1.52595 8.47727 0.045548 6.75 0.045548 4.88636C0.045548 2 2.27754 1.38716e-06 5.98992 1.38716e-06C7.40199 1.38716e-06 9.01905 0.25 10.8411 0.772727V4.25H9.70231V4.04545C9.70231 2.20454 8.06248 1.11364 6.51376 1.11364C4.80561 1.11364 3.73516 2.02273 3.55296 3.18182C3.37076 4.34091 4.09957 5.77273 6.03547 6.86364C7.6753 7.77273 9.77063 8.86364 10.8866 10.1591C11.5471 10.9318 11.866 11.8636 11.866 12.9545C11.866 14.5455 11.251 15.7955 10.0212 16.7273C8.79129 17.6591 7.15146 18.1364 5.07891 18.1364C3.59851 18.1364 1.91313 17.9091 1.3901e-06 17.4773Z" transform="translate(68.3489 43.3182)" fill="#D6B46B"/>
<path d="M3.09745 16.1818H4.82838V17.25H0V16.1818H1.73093L8.81407 1.38716e-06H9.97561L15.8517 13.4318L15.6467 14.7045L15.4873 16.0909L17.241 17.25H11.8887V16.1818H13.6424L11.7749 11.8864H5.01058L3.09745 16.1818ZM11.2966 10.8864L8.35856 4.15909L5.42054 10.8864H11.2966Z" transform="translate(52.9526 43.7727)" fill="#D6B46B"/>
<path d="M5.01058 8.95455V16.1818H6.74151V17.25H0.0227726V16.1818H1.7537V2.34091C1.7537 1.63636 1.13877 1.06818 0.38718 1.06818H2.7802e-06V0H6.71874V1.06818H6.33155C5.57997 1.06818 4.96503 1.63636 4.96503 2.34091V7.95455L10.9094 2.15909C11.0916 1.97727 11.1372 1.70454 11.0461 1.45454C10.9322 1.22727 10.7044 1.06818 10.4311 1.06818H10.2945V0H15.5556V1.06818C14.394 1.06818 13.4147 1.45454 12.6176 2.25L7.60697 7.15909L16.3983 18.6818H18.1292V20.8182L14.0524 20.8409L5.01058 8.95455Z" transform="translate(97.4102 43.75)" fill="#D6B46B"/>
<path fill-rule="evenodd" clip-rule="evenodd" d="M2.18644 9.86364L3.66683 8.43182V34.5682H2.18644V9.86364ZM0 11.9773L1.4804 10.5455V34.5682H0V11.9773ZM5.87605 6.31818V34.5455H4.39565V7.75L5.87605 6.31818ZM8.06248 4.22727V21.3636L7.44755 21.7273V34.5682H6.58208V5.65909L8.06248 4.22727ZM10.2489 2.11364V20.1136L9.63398 20.4773V34.5909H8.76852V3.54546L10.2489 2.11364ZM12.4354 -6.93581e-07V18.8409L11.8204 19.2046V34.5682H10.955V1.43182L12.4354 -6.93581e-07ZM23.4586 9.86364L21.9782 8.43182V34.5682H23.4586V9.86364ZM25.6451 11.9773L24.1647 10.5455V34.5682H25.6451V11.9773ZM19.7918 6.31818V34.5455H21.2722V7.75L19.7918 6.31818ZM17.5826 4.22727V21.3636L18.1975 21.7273V34.5682H19.063V5.65909L17.5826 4.22727ZM15.3961 2.11364V20.1136L16.0111 20.4773V34.5909H16.8765V3.54546L15.3961 2.11364ZM13.2097 -6.93581e-07V18.8409L13.8246 19.1818V34.5455H14.6901V1.43182L13.2097 -6.93581e-07Z" transform="translate(0 46.4091)" fill="#1E3567"/>
<path fill-rule="evenodd" clip-rule="evenodd" d="M7.17424 26.4545L6.55931 27.2955V1.18182L7.17424 0V26.4545ZM4.98781 29.4545L4.37287 30.2955V5.38636L4.98781 4.20455V29.4545ZM2.80137 32.4545L2.18644 33.2955V9.56818L2.80137 8.38636V32.4545ZM0.614935 35.4773L8.68811e-08 36.3182V13.7727L0.614935 12.5909V35.4773ZM7.9486 26.4545L8.56354 27.2955V1.18182L7.9486 0V26.4545ZM10.135 29.4545L10.75 30.2955V5.38636L10.135 4.20455V29.4545ZM12.3215 32.4545L12.9364 33.2955V9.56818L12.3215 8.38636V32.4545ZM14.5307 35.4773L15.1456 36.3182V13.7727L14.5307 12.5909V35.4773Z" transform="translate(5.26123)" fill="#D6B46B"/>
<path fill-rule="evenodd" clip-rule="evenodd" d="M20.3156 29.3864V13.4318L19.3135 12.0455V28.4091L20.3156 29.3864ZM18.1292 27.2727V10.4091L17.1271 9.02273V26.2955L18.1292 27.2727ZM15.92 25.1591V7.40909L14.9179 6.02273V24.1818L15.92 25.1591ZM13.7335 23.0455V4.38636L12.7314 3V22.0682L13.7335 23.0455ZM11.5471 20.9545V1.40909L10.545 0.0227276V19.9773L11.5471 20.9545ZM-4.34406e-08 29.3864V13.4318L1.00212 12.0455V28.4091L-4.34406e-08 29.3864ZM2.18644 27.2727V10.4091L3.18855 9.02273V26.2955L2.18644 27.2727ZM4.39565 25.1591V7.40909L5.39776 6.02273V24.1818L4.39565 25.1591ZM6.58208 23.0455V4.38636L7.5842 3V22.0682L6.58208 23.0455ZM8.76852 20.9318V1.38636L9.77063 6.93581e-07V19.9545L8.76852 20.9318Z" transform="translate(2.66479 26.4318)" fill="#1B65AE"/>
</svg>